<?xml version="1.0" standalone="no"?><!DOCTYPE svg PUBLIC "-//W3C//DTD SVG 1.1//EN" "http://www.w3.org/Graphics/SVG/1.1/DTD/svg11.dtd"><svg t="1732981014292" class="icon" viewBox="0 0 1024 1024" version="1.1" xmlns="http://www.w3.org/2000/svg" p-id="8166" width="48" height="48" xmlns:xlink="http://www.w3.org/1999/xlink"><path d="M889.344 155.946667a73.002667 73.002667 0 1 1-47.381333 138.090666 73.002667 73.002667 0 0 1 47.381333-138.069333zM819.242667 408.533333a66.624 66.624 0 0 0-20.288 45.653334v229.824a52.330667 52.330667 0 1 1-104.682667 0v-158.016a161.664 161.664 0 0 0-286.378667-102.890667 22.293333 22.293333 0 0 1-28.288 6.805333 22.528 22.528 0 0 1-7.978666-6.805333A161.6 161.6 0 0 0 85.333333 525.376v279.552a66.624 66.624 0 0 0 133.162667 0V550.528a52.330667 52.330667 0 1 1 104.682667 0v254.464a66.624 66.624 0 0 0 133.184 0V550.613333a52.437333 52.437333 0 1 1 104.746666 0v135.893334a185.514667 185.514667 0 1 0 371.008 0V454.186667a66.624 66.624 0 0 0-112.874666-45.653334z" p-id="8167" fill="#ffffff"></path></svg>