<?xml version="1.0" standalone="no"?><!DOCTYPE svg PUBLIC "-//W3C//DTD SVG 1.1//EN" "http://www.w3.org/Graphics/SVG/1.1/DTD/svg11.dtd"><svg t="1732980847900" class="icon" viewBox="0 0 3486 1024" version="1.1" xmlns="http://www.w3.org/2000/svg" p-id="5929" width="435.75" height="128" xmlns:xlink="http://www.w3.org/1999/xlink"><path d="M1003.034161 65.625693c52.283796-11.323796 107.52 34.307737 106.025109 87.86219 2.429197 52.096934-48.583942 97.728467-100.045547 90.029781-48.284964-4.708905-86.554161-53.666569-78.332263-101.689927 4.78365-37.633869 35.615766-68.54073 72.352701-76.202044z" fill="#6A6A6A" p-id="5930"></path><path d="M1287.399708 118.283212c48.284964-17.67708 105.128175 21.077956 106.884672 72.277956 1.121168 69.848759-0.149489 139.772263 0.560584 209.658394-0.373723 19.022482 17.415474 35.84 36.288467 35.204672 30.084672 0.149489 60.206715 0.224234 90.328759 0 18.424526-0.037372 35.129927-16.780146 35.055182-35.242044 0.224234-67.307445 0-134.652263 0.037373-201.959708-0.672701-29.524088 15.621606-58.749197 41.483211-73.137518 24.628321-14.500438 56.992701-14.350949 81.546278 0.33635 25.6 14.388321 41.445839 43.463942 40.810511 72.689051-0.074745 221.692263-0.037372 443.347153-0.037373 665.002044 0.523212 28.328175-14.463066 56.432117-38.792408 71.082044-24.740438 15.845839-58.151241 16.443796-83.489636 1.569635-25.749489-14.20146-41.969051-43.27708-41.520583-72.576935 0.037372-72.240584 0.037372-144.51854 0.037372-216.759124 1.494891-19.807299-15.957956-37.82073-35.541022-38.15708-29.89781-0.411095-59.832993-0.261606-89.693431-0.037372-20.106277-0.373723-38.119708 18.050803-36.66219 38.194452-0.112117 72.277956 0.074745 144.555912-0.037372 216.833869 0.149489 26.310073-12.55708 52.433285-34.120876 67.681168-24.217226 18.088175-58.711825 20.629489-85.358248 6.428029-27.24438-13.71562-45.033577-43.576058-44.323504-74.034453 0.074745-223.037664-0.112117-446.075328 0.074745-669.112992 0.224234-33.934015 24.179854-65.73781 56.469489-75.940438zM2374.222482 117.573139c20.031533-6.390657 41.670073-1.831241 62.411679-3.13927 22.423358 0.261606 51.723212-5.082628 65.214598 18.050803 30.421022 53.442336 59.496642 107.706861 89.506569 161.410802 3.998832 9.978394 19.246715 10.277372 23.170803 0.112117 28.141314-52.769635 57.927007-104.642336 86.180438-157.337226 6.390657-13.080292 20.031533-22.572847 34.868322-22.199124 27.393869-0.037372 54.825109-0.373723 82.218978 0.186861 26.646423 0.298978 45.818394 32.738102 32.588613 56.095767-54.189781 97.877956-108.043212 196.017518-162.34511 293.858102-3.251387 5.194745-3.998832 11.286423-3.811971 17.303357 0.298978 127.140438 0.037372 254.280876 0.14949 381.421314 0.448467 29.000876-15.434745 57.628029-40.698395 71.978978-24.478832 14.799416-56.917956 14.911533-81.583649 0.48584-25.712117-14.20146-41.969051-43.239708-41.557956-72.50219 0.074745-128.33635-0.037372-256.672701 0.074744-385.009051 0.298978-5.755328-1.681752-11.099562-4.484671-15.957956-54.376642-97.578978-107.85635-195.71854-162.34511-293.222774-8.558248-19.134599 1.009051-43.538686 20.442628-51.53635zM1864.689051 279.170803c16.780146 7.549197 30.72 19.769927 45.967883 29.823066 9.679416 6.428029 19.396204 13.155036 26.347446 22.647591-14.20146 14.051971-31.093723 25.076788-45.220438 39.240876-7.175474 7.138102-14.874161 13.790365-23.395037 19.246715-11.734891-35.428905-11.88438-74.707153-3.699854-110.958248zM2283.258394 317.851095c18.872993-12.930803 37.185401-26.683796 56.693723-38.605548 7.810803 17.938686 6.465401 37.82073 6.465401 56.917957 0 18.013431-2.765547 35.952117-7.810803 53.218102-13.827737-4.708905-22.12438-17.490219-33.074452-26.310073-11.286423-10.613723-25.151533-18.312409-35.01781-30.308905 0.33635-7.212847 7.960292-10.651095 12.743941-14.911533zM3247.72438 310.825109c40.063066-19.844672 87.264234-14.014599 128 0.597957-28.477664 4.821022-58.375474 15.322628-75.417227 40.175182-22.049635 32.70073-22.722336 77.098978-9.044087 113.12584 60.28146 103.371679 61.141022 238.734015 1.607007 342.628905-30.607883 53.703942-77.95854 98.812263-135.511825 122.319416-54.638248 22.610219-117.76 23.880876-173.183066 3.326131-57.067445-20.704234-104.978686-62.860146-137.081459-113.910657-69.400292-109.687591-68.279124-259.662482 3.176642-368.116788 34.531971-52.807007 86.479416-95.261898 147.358832-113.387445 47.126423-14.425693 98.737518-13.566131 145.303358 2.541314 15.434745 4.671533 31.87854 11.361168 48.172846 7.77343 20.853723-9.08146 35.952117-27.468613 56.618979-37.073285m-197.288176 172.211387c-39.80146 5.157372-74.669781 31.504818-94.962919 65.476205-40.997372 66.597372-29.823066 162.606715 30.495766 214.030949 28.814015 25.039416 69.661898 36.923796 107.071533 27.543357 42.11854-9.567299 76.388905-42.155912 93.580146-81.060438 29.262482-64.24292 15.771095-147.769927-38.007591-195.120584-26.347445-23.61927-62.934891-35.989489-98.176935-30.869489z" fill="#6A6A6A" p-id="5931"></path><path d="M243.77927 325.886131c60.131971-5.418978 122.319416 18.648759 162.494599 63.831825 7.474453 8.221898 15.173139 18.49927 27.393868 19.022482 13.566131 1.494891 22.871825-9.754161 30.906862-18.83562 42.753869-48.284964 110.584526-72.277956 174.229489-62.673285 66.933723 8.670365 127.065693 54.862482 153.786861 116.676204 11.585401 26.048467 17.00438 54.67562 16.742774 83.153285 0 63.458102-0.074745 126.916204 0 190.374306-0.784818 29.374599 21.414307 56.65635 49.89197 62.860146 28.515036 7.250219 60.430949-8.745109 72.539562-35.391532 7.250219-14.20146 5.680584-30.495766 5.792701-45.893139-0.186861-86.030949-0.037372-172.061898-0.112117-258.130219-0.261606-21.900146 6.839124-44.323504 22.311241-60.244088 21.190073-23.469781 56.805839-32.513869 86.554161-21.563795 32.513869 10.688467 56.133139 43.800292 54.787737 78.145401-0.037372 94.701314 0 189.402628-0.037372 284.06657 0.635328 52.35854-18.536642 104.38073-51.872701 144.630656-40.548905 49.592993-102.923212 80.76146-167.054014 82.555329-63.08438 2.915036-126.691971-22.385985-170.716497-67.643796-40.997372-40.885255-64.616642-97.990073-65.812555-155.767591-0.33635-57.441168 0.112117-114.882336-0.149489-172.323504 0.82219-33.186569-29.187737-62.972263-62.224817-62.710657-34.345109-2.167591-66.447883 28.40292-65.849927 62.785402-0.037372 94.850803 0 189.701606 0 284.515036-0.037372 20.517372 1.98073 42.268029-7.474453 61.253139-11.39854 25.749489-37.035912 44.398248-65.027737 47.425402-31.504818 4.073577-64.317664-12.519708-79.93927-40.100438-8.483504-13.752993-11.435912-30.122044-11.249051-46.117373 0.261606-94.738686-0.037372-189.477372 0.186861-284.216058 0-17.265985 1.382774-35.765255-7.511825-51.386861-13.678248-27.319124-48.247591-41.146861-77.061605-31.093723-25.413139 8.109781-44.09927 33.261314-44.024526 60.019854-0.224234 94.663942-0.037372 189.327883-0.074745 283.991825-0.261606 18.574015 1.831241 37.858102-4.895766 55.609927-10.090511 28.477664-37.185401 50.004088-67.232701 53.255474-33.448175 4.484672-68.241752-14.500438-82.779562-44.884087-8.558248-14.874161-6.689635-32.551241-6.839124-48.995037 0.224234-115.891387-0.112117-231.782774 0.186862-347.67416 5.082628-93.056934 87.750073-172.659854 180.134306-178.5273z" fill="#6A6A6A" p-id="5932"></path><path d="M2057.380438 331.940438c56.133139-11.585401 116.003504-0.971679 165.708613 27.319124 48.284964 27.356496 87.152117 69.998248 112.714745 119.068029 58.749197 112.004672 49.966715 257.195912-25.525256 359.334307-37.260146 50.826277-91.748905 90.067153-153.674744 103.969635-55.236204 12.669197-114.844964 4.858394-164.886424-21.750657-60.356204-31.243212-106.398832-86.329927-132.29781-148.629489-48.995036-116.265109-29.673577-260.559416 55.011971-355.447591 37.297518-41.931679 87.563212-73.100146 142.948905-83.863358m18.611387 153.226277c-30.944234 7.287591-58.076496 27.132263-76.388905 52.84438-50.489927 68.54073-39.427737 176.471825 29.038248 229.017226 28.40292 22.087007 66.784234 31.915912 101.951533 22.94657 40.773139-9.268321 74.146569-40.399416 91.67416-77.659563 32.999708-68.092263 16.443796-159.579562-45.482043-205.622189-28.290803-21.489051-66.148905-30.009927-100.792993-21.526424z" fill="#6A6A6A" p-id="5933"></path></svg>