<svg id="图层_1" data-name="图层 1" xmlns="http://www.w3.org/2000/svg" viewBox="0 0 32 31.97"><defs><style>.cls-1{fill:#eeb054;}</style></defs><path class="cls-1" d="M19,14.54l1.34-1.34a3.24,3.24,0,0,1-1-2.3V5.21A3.26,3.26,0,0,1,22.68,2h5.69a3.25,3.25,0,0,1,2.3,1L32,1.58A5.32,5.32,0,0,0,28.22,0h-5.4a5.35,5.35,0,0,0-5.34,5.35v5.4A5.37,5.37,0,0,0,19,14.54Z" transform="translate(0 -0.01)"/><path class="cls-1" d="M27,4.8H24.05a1.78,1.78,0,0,0-1.78,1.78V9.53a1.78,1.78,0,0,0,.52,1.26l5.46-5.46A1.73,1.73,0,0,0,27,4.8Z" transform="translate(0 -0.01)"/><path class="cls-1" d="M9.52,22.23H6.57A1.78,1.78,0,0,0,4.79,24V27a1.76,1.76,0,0,0,.55,1.28l5.46-5.46A1.76,1.76,0,0,0,9.52,22.23Z" transform="translate(0 -0.01)"/><path class="cls-1" d="M1.59,32l1.34-1.34a3.22,3.22,0,0,1-1-2.32V22.64A3.26,3.26,0,0,1,5.2,19.38h5.69a3.22,3.22,0,0,1,2.32,1L14.55,19a5.35,5.35,0,0,0-3.81-1.59H5.34A5.34,5.34,0,0,0,0,22.78v5.41A5.34,5.34,0,0,0,1.59,32Z" transform="translate(0 -0.01)"/><path class="cls-1" d="M5.34,16.1h5.4a5.35,5.35,0,0,0,5.35-5.34V5.36A5.36,5.36,0,0,0,10.74,0H5.34A5.35,5.35,0,0,0,0,5.36v5.4A5.34,5.34,0,0,0,5.34,16.1ZM1.94,5.21A3.26,3.26,0,0,1,5.2,2h5.69a3.25,3.25,0,0,1,3.25,3.25V10.9a3.25,3.25,0,0,1-3.25,3.26H5.2A3.26,3.26,0,0,1,1.94,10.9Z" transform="translate(0 -0.01)"/><rect class="cls-1" x="4.79" y="4.79" width="6.51" height="6.51" rx="1.78"/></svg>