<?xml version="1.0" standalone="no"?><!DOCTYPE svg PUBLIC "-//W3C//DTD SVG 1.1//EN" "http://www.w3.org/Graphics/SVG/1.1/DTD/svg11.dtd"><svg t="1732981066795" class="icon" viewBox="0 0 1024 1024" version="1.1" xmlns="http://www.w3.org/2000/svg" p-id="9273" xmlns:xlink="http://www.w3.org/1999/xlink" width="48" height="48"><path d="M20.41464 215.391c2.972-3.183 8.359-1.98 10.679 1.502 1.169 4.611 0.122 10.145 3.414 13.954 5.05 4.984 12.559 4.688 19.067 4.862 104.055-0.052 208.112-0.024 312.169-0.024 7.337-0.726 14.75 5.462 14.798 13.202 0.194 19.265 0.172 38.58-0.024 57.846-0.096 7.688-7.485 13.78-14.798 13.125-30.941 0.174-61.903-0.174-92.842 0.126-8.239-0.076-14.338 8.342-13.385 16.457 0 110.256 0.052 220.536-0.024 330.789 0.706 7.644-5.385 15.205-12.968 15.284-26.037 0.349-52.103 0.074-78.14 0.126-8.285 0.975-16.163-6.589-15.336-15.232-0.052-110.33 0-220.686 0-331.04 0.757-7.513-4.313-15.458-11.924-16.261-30.838-0.953-61.759 0.879-92.574-1.228-14.774-1.077-30.474-6.563-38.934-19.867-18.116-25.429-8.316-61.851 10.823-83.626z m682.871 75.132c21.184-5.512 44.347-1.603 62.83 10.396 16.289 10.601 31.401 25.852 35.112 46.07 0.388 6.009 8.51 8.717 11.97 3.635 16.481-18.589 39.812-30.915 64.509-31.266 40.399-0.726 79.795 19.889 105.812 51.183 26.844 32.09 38.376 74.856 40.179 116.491 1.805 43.187-3.874 88.407-25.893 126.061-19.507 33.871-53.175 58.622-90.67 66.663-26.209 6.037-55.345 2.98-77.92-12.753-5.241-3.305-9.34-8.292-14.87-11.021-5.023-1.228-9.044 3.909-8.239 8.819-0.074 43.414 0.024 86.831-0.024 130.271 0.781 7.795-5.682 15.458-13.407 15.253-26.087 0.227-52.196 0.1-78.284 0.074-8.071 0.75-15.458-6.813-14.75-15.105-0.074-129.545-0.024-259.114-0.024-388.659-0.318-20.894-0.294-42.44-7.123-62.405-3.536-10.795-12.138-19.867-23.329-21.849-5.974-0.126-9.75-7.718-5.385-12.375 11.728-9.042 25.261-15.783 39.522-19.488l-0.002 0.004z m139.09 113.162c-11.896 3.432-24.014 9.072-31.547 19.542-4.853 6.789-4.801 15.578-4.779 23.624 0.194 40.037-0.22 80.096 0.194 120.098 0.074 17.615 17.532 27.258 32.38 29.785 34.207 8.27 68.728-15.709 83.479-46.547 14.089-30.513 13.071-67.04 2.073-98.382-11.556-32.966-47.637-57.619-81.798-48.124h-0.002z m-307.488-61.426c0.685-7.891 4.313-17.484 13.313-17.94 26.137-0.401 52.297-0.1 78.434-0.153 7.997-0.802 15.432 6.615 14.824 14.883 0.074 86.126 0.074 172.259-0.024 258.386 0.685 18.461 4.753 39.884 20.868 50.781 4.435 3.532 13.529 3.885 13.043 11.447-0.318 5.684-6.51 7.265-10.433 9.77-22.817 12.029-49.175 21.467-74.992 15.332-21.284-4.838-38.083-22.37-45.932-42.788-1.973-3.737-2.562-9.696-7.559-10.372-5.217-1.001-7.461 4.485-10.095 7.893-12.138 17.961-29.183 33.897-50.518 38.729-38.45 8.617-81.724-1.851-109.713-31.091-30.5-31.612-44.642-76.557-47.446-120.174-0.73-41.908 5.17-85.4 25.597-122.306 14.458-26.329 37.937-47.302 65.579-57.791 26.966-10.673 56.365-11.926 84.942-10.62 13.509 0.628 27.014 2.429 40.105 6.009h-0.002z m-49.419 52.602c-25.525 2.656-49.395 17.94-62.557 40.61-18.844 32.068-21.428 72.399-11.802 108.025 6.242 22.019 18.238 44.367 38.962 54.889 16.503 8.641 35.816 4.808 52.589-0.852 18.432-6.29 34.449-24.576 32.401-45.492-0.144-46.748 0.052-93.496-0.074-140.213 0.534-6.765-3.412-14.03-10.143-15.535-12.825-3.556-26.305-2.88-39.372-1.428l0.002-0.002z" p-id="9274" fill="#ffffff"></path></svg>