<svg version="1.0" xmlns="http://www.w3.org/2000/svg"
 width="505.5462184873949px" style="transform:scale(1.001,1);" height="376px" viewBox="0 0 320.000000 238.000000"
 preserveAspectRatio="xMidYMid meet">
<g transform="translate(0.000000,238.000000) scale(0.100000,-0.100000)"
fill="#000000" stroke="none">
<path d="M0 1195 l0 -1185 226 0 227 0 -7 38 c-4 20 -9 84 -12 142 -3 58 -12 137 -20
177 -10 54 -14 159 -14 410 0 295 3 347 19 408 37 144 102 238 216 315 28 18
80 62 118 98 56 54 71 63 92 58 34 -9 71 18 86 61 19 59 -7 169 -52 214 -39
39 -23 61 66 84 44 12 103 31 130 43 89 38 120 43 427 77 157 18 178 13 178
-36 0 -17 -11 -45 -24 -62 -14 -18 -33 -55 -44 -82 -19 -48 -19 -55 -5 -133
15 -81 13 -119 -7 -107 -12 7 -26 -26 -46 -110 -19 -77 -69 -176 -116 -230
-38 -43 -88 -65 -147 -65 -29 0 -31 -2 -31 -39 0 -22 5 -43 10 -46 6 -3 10
-16 10 -27 0 -12 18 -80 41 -151 22 -71 38 -139 35 -150 -3 -13 3 -31 14 -45
18 -22 22 -23 77 -13 32 6 84 24 115 41 56 29 58 29 71 10 13 -18 16 -18 73
-4 62 17 136 13 160 -7 11 -9 14 -8 14 5 0 16 17 16 67 1 9 -3 10 1 3 13 -5 9
-16 40 -25 69 -18 57 -8 100 21 89 8 -3 14 1 14 9 0 8 5 14 12 13 6 -2 14 5
16 15 3 13 -3 17 -30 17 -33 0 -33 0 -30 43 2 23 -6 83 -18 132 -12 50 -24
104 -27 121 -8 49 25 142 66 188 20 23 45 53 54 69 l17 27 127 0 127 0 38 -41
c21 -22 38 -48 38 -57 0 -10 7 -30 15 -46 18 -34 20 -148 4 -197 -7 -19 -20
-43 -30 -55 -11 -11 -19 -32 -19 -46 0 -63 28 -96 161 -191 92 -66 120 -95
162 -167 52 -91 57 -133 57 -522 l0 -358 250 0 250 0 0 1185 0 1185 -1600 0
-1600 0 0 -1185z"/>
<path d="M1620 460 c0 -6 -38 -29 -85 -50 -46 -22 -89 -49 -95 -59 -7 -14 -5 -58 5
-148 8 -70 15 -143 15 -160 0 -32 1 -33 45 -33 l45 0 0 49 c0 27 5 62 11 78 6
15 24 86 39 158 16 72 32 140 36 153 4 13 2 22 -5 22 -6 0 -11 -5 -11 -10z"/>
</g>
</svg>
